<?xml version="1.0" encoding="UTF-8" standalone="no"?>
<!-- Created with Inkscape (http://www.inkscape.org/) -->

<svg
   xmlns:ns0="http://www.iki.fi/pav/software/textext/"
   xmlns:dc="http://purl.org/dc/elements/1.1/"
   xmlns:cc="http://creativecommons.org/ns#"
   xmlns:rdf="http://www.w3.org/1999/02/22-rdf-syntax-ns#"
   xmlns:svg="http://www.w3.org/2000/svg"
   xmlns="http://www.w3.org/2000/svg"
   xmlns:sodipodi="http://sodipodi.sourceforge.net/DTD/sodipodi-0.dtd"
   xmlns:inkscape="http://www.inkscape.org/namespaces/inkscape"
   width="210mm"
   height="297mm"
   viewBox="0 0 210 297"
   version="1.1"
   id="svg8"
   inkscape:version="0.92.2 (5c3e80d, 2017-08-06)"
   sodipodi:docname="Triangle1.svg"
   inkscape:export-filename="C:\Users\bbramman\OneDrive\Documents\Trapped Ion Research (Grad)\Repositories\Adiabatic-Passage\Triangle1.png"
   inkscape:export-xdpi="96"
   inkscape:export-ydpi="96">
  <sodipodi:namedview
     id="base"
     pagecolor="#ffffff"
     bordercolor="#666666"
     borderopacity="1.0"
     inkscape:pageopacity="0.0"
     inkscape:pageshadow="2"
     inkscape:zoom="0.98994949"
     inkscape:cx="205.23874"
     inkscape:cy="630.70305"
     inkscape:document-units="mm"
     inkscape:current-layer="layer2"
     showgrid="false"
     inkscape:window-width="1618"
     inkscape:window-height="1027"
     inkscape:window-x="54"
     inkscape:window-y="-8"
     inkscape:window-maximized="1" />
  <defs
     id="defs2" />
  <metadata
     id="metadata5">
    <rdf:RDF>
      <cc:Work
         rdf:about="">
        <dc:format>image/svg+xml</dc:format>
        <dc:type
           rdf:resource="http://purl.org/dc/dcmitype/StillImage" />
        <dc:title />
      </cc:Work>
    </rdf:RDF>
  </metadata>
  <g
     inkscape:groupmode="layer"
     id="layer2"
     inkscape:label="Layer 2">
    <rect
       style="opacity:0.97000002;fill:#ffffff;fill-opacity:1;stroke:none;stroke-width:0.26499999;stroke-miterlimit:4;stroke-dasharray:none;stroke-dashoffset:0;stroke-opacity:1"
       id="rect1089"
       width="118.66766"
       height="84.724442"
       x="31.270535"
       y="71.959053"
       inkscape:export-xdpi="96"
       inkscape:export-ydpi="96" />
  </g>
  <g
     inkscape:label="Layer 1"
     inkscape:groupmode="layer"
     id="layer1">
    <path
       style="fill:none;stroke:#000000;stroke-width:0.26458332px;stroke-linecap:butt;stroke-linejoin:miter;stroke-opacity:1"
       d="m 47.624999,84.955355 10e-7,52.916665"
       id="path815"
       inkscape:connector-curvature="0"
       sodipodi:nodetypes="cc" />
    <path
       style="fill:none;stroke:#000000;stroke-width:0.26458332px;stroke-linecap:butt;stroke-linejoin:miter;stroke-opacity:1"
       d="M 47.624998,137.87202 H 143.03752"
       id="path815-1"
       inkscape:connector-curvature="0"
       sodipodi:nodetypes="cc" />
    <path
       style="fill:none;stroke:#000000;stroke-width:0.26458332px;stroke-linecap:butt;stroke-linejoin:miter;stroke-opacity:1"
       d="M 47.624999,84.955355 143.03752,137.87202"
       id="path832"
       inkscape:connector-curvature="0"
       clip-path="none" />
    <path
       style="opacity:0.97000002;fill:#ffffff;fill-opacity:1;stroke:#000000;stroke-width:0.26499999;stroke-miterlimit:4;stroke-dasharray:none;stroke-dashoffset:0;stroke-opacity:1"
       id="path841"
       clip-path="none"
       sodipodi:type="arc"
       sodipodi:cx="143.52374"
       sodipodi:cy="138.2419"
       sodipodi:rx="20.3125"
       sodipodi:ry="20.312483"
       sodipodi:start="3.1579847"
       sodipodi:end="3.655037"
       d="m 123.21397,137.90895 a 20.3125,20.312483 0 0 1 2.61641,-9.64415"
       sodipodi:open="true" />
    <rect
       style="opacity:0.97000002;fill:#ffffff;fill-opacity:1;stroke:#000000;stroke-width:0.26499999;stroke-miterlimit:4;stroke-dasharray:none;stroke-dashoffset:0;stroke-opacity:1"
       id="rect855"
       width="8.9849997"
       height="8.9849997"
       x="47.625"
       y="128.88702" />
    <g
       style="font-style:normal;font-variant:normal;font-weight:normal;font-stretch:normal;letter-spacing:normal;word-spacing:normal;text-anchor:start;fill:none;fill-opacity:1;fill-rule:evenodd;stroke:#000000;stroke-width:0.55547172;stroke-linecap:butt;stroke-linejoin:miter;stroke-miterlimit:10.43299961;stroke-dasharray:none;stroke-dashoffset:0;stroke-opacity:1"
       id="content"
       transform="matrix(0.55538387,0.3078543,0.30794722,-0.55555148,-215.80272,413.96719)"
       xml:space="preserve"
       stroke-miterlimit="10.433"
       font-style="normal"
       font-variant="normal"
       font-weight="normal"
       font-stretch="normal"
       font-size-adjust="none"
       letter-spacing="normal"
       word-spacing="normal"
       ns0:version="0.8.1"
       ns0:texconverter="pdflatex"
       ns0:pdfconverter="pstoedit"
       ns0:text="$\\sqrt{2\\Omega^2 + 2\\Delta^2 + 2\\Delta\\Omega}$"
       ns0:preamble="C:\\Users\\bbramman\\AppData\\Roaming\\inkscape\\extensions\\default_packages.tex"
       ns0:scale="1.0"
       ns0:alignment="middle center"
       inkscapeversion="0.92.2"
       ns0:jacobian_sqrt="0.352778"><path
         style="fill:#000000;stroke-width:0"
         inkscape:connector-curvature="0"
         d="m 152.58,657.04 -1.75,3.87 c -0.07,0.16 -0.12,0.16 -0.15,0.16 -0.01,0 -0.06,0 -0.17,-0.08 l -0.94,-0.72 c -0.13,-0.1 -0.13,-0.13 -0.13,-0.16 0,-0.05 0.03,-0.1 0.1,-0.1 0.06,0 0.23,0.13 0.34,0.21 0.06,0.05 0.21,0.16 0.31,0.24 l 1.96,-4.3 c 0.07,-0.16 0.12,-0.16 0.21,-0.16 0.15,0 0.18,0.06 0.25,0.2 l 4.52,9.34 c 0.07,0.14 0.07,0.18 0.07,0.2 0,0.1 -0.08,0.19 -0.2,0.19 -0.08,0 -0.15,-0.04 -0.23,-0.2 z"
         id="path842" /><line
         style="stroke-width:0.22107776"
         x1="157.00999"
         y1="665.73999"
         x2="236.25"
         y2="665.73999"
         id="line844" /><path
         style="fill:#000000;stroke-width:0"
         inkscape:connector-curvature="0"
         d="m 158.28,658 1.05,1.02 c 1.55,1.37 2.15,1.91 2.15,2.9 0,1.14 -0.89,1.93 -2.11,1.93 -1.12,0 -1.86,-0.91 -1.86,-1.8 0,-0.55 0.5,-0.55 0.53,-0.55 0.17,0 0.52,0.12 0.52,0.52 0,0.26 -0.18,0.52 -0.53,0.52 -0.08,0 -0.1,0 -0.13,-0.01 0.23,0.64 0.77,1.01 1.34,1.01 0.91,0 1.34,-0.8 1.34,-1.62 0,-0.79 -0.5,-1.58 -1.05,-2.19 l -1.91,-2.13 c -0.11,-0.11 -0.11,-0.13 -0.11,-0.37 h 3.69 l 0.28,1.73 h -0.25 c -0.05,-0.3 -0.12,-0.73 -0.22,-0.88 C 160.95,658 160.29,658 160.07,658 Z"
         id="path846" /><path
         style="fill:#000000;stroke-width:0"
         inkscape:connector-curvature="0"
         d="m 168.73,658.84 h -0.25 c -0.05,-0.25 -0.09,-0.48 -0.18,-0.72 -0.05,-0.16 -0.08,-0.24 -0.65,-0.24 h -0.8 c 0.13,0.56 0.44,1.03 0.89,1.69 0.47,0.71 0.87,1.39 0.87,2.17 0,1.39 -1.34,2.5 -3.02,2.5 -1.71,0 -3.04,-1.13 -3.04,-2.5 0,-0.78 0.41,-1.46 0.88,-2.17 0.44,-0.66 0.75,-1.13 0.88,-1.69 h -0.79 c -0.58,0 -0.61,0.08 -0.66,0.23 -0.08,0.23 -0.13,0.49 -0.18,0.73 h -0.25 l 0.33,-1.61 h 1.59 c 0.22,0 0.25,0 0.25,0.21 0,0.7 -0.31,1.57 -0.53,2.21 -0.21,0.57 -0.49,1.36 -0.49,2.11 0,1.58 1.09,2.26 2,2.26 0.95,0 2.01,-0.72 2.01,-2.26 0,-0.75 -0.27,-1.5 -0.56,-2.32 -0.15,-0.42 -0.47,-1.31 -0.47,-2 0,-0.21 0.03,-0.21 0.26,-0.21 h 1.58 z"
         id="path848" /><path
         style="fill:#000000;stroke-width:0"
         inkscape:connector-curvature="0"
         d="m 172.71,661.38 h -0.24 c -0.02,-0.15 -0.09,-0.56 -0.18,-0.63 -0.06,-0.05 -0.59,-0.05 -0.69,-0.05 h -1.28 c 0.73,0.65 0.97,0.84 1.39,1.17 0.52,0.41 1,0.84 1,1.5 0,0.85 -0.74,1.36 -1.63,1.36 -0.87,0 -1.45,-0.6 -1.45,-1.25 0,-0.35 0.3,-0.38 0.37,-0.38 0.17,0 0.37,0.11 0.37,0.37 0,0.12 -0.05,0.36 -0.41,0.36 0.21,0.5 0.69,0.65 1.01,0.65 0.7,0 1.06,-0.54 1.06,-1.11 0,-0.6 -0.43,-1.08 -0.65,-1.33 l -1.68,-1.66 c -0.07,-0.06 -0.07,-0.07 -0.07,-0.27 h 2.87 z"
         id="path850" /><path
         style="fill:#000000;stroke-width:0"
         inkscape:connector-curvature="0"
         d="m 179.94,659.52 h 2.78 c 0.14,0 0.33,0 0.33,0.2 0,0.2 -0.19,0.2 -0.33,0.2 h -2.78 v 2.78 c 0,0.14 0,0.33 -0.2,0.33 -0.2,0 -0.2,-0.19 -0.2,-0.33 v -2.78 h -2.78 c -0.14,0 -0.33,0 -0.33,-0.2 0,-0.2 0.19,-0.2 0.33,-0.2 h 2.78 v -2.78 c 0,-0.14 0,-0.33 0.2,-0.33 0.2,0 0.2,0.19 0.2,0.33 z"
         id="path852" /><path
         style="fill:#000000;stroke-width:0"
         inkscape:connector-curvature="0"
         d="m 187.1,658 1.05,1.02 c 1.56,1.37 2.15,1.91 2.15,2.9 0,1.14 -0.89,1.93 -2.11,1.93 -1.12,0 -1.86,-0.91 -1.86,-1.8 0,-0.55 0.5,-0.55 0.53,-0.55 0.17,0 0.52,0.12 0.52,0.52 0,0.26 -0.18,0.52 -0.53,0.52 -0.08,0 -0.1,0 -0.13,-0.01 0.23,0.64 0.77,1.01 1.34,1.01 0.91,0 1.34,-0.8 1.34,-1.62 0,-0.79 -0.5,-1.58 -1.05,-2.19 l -1.91,-2.13 c -0.11,-0.11 -0.11,-0.13 -0.11,-0.37 h 3.69 l 0.28,1.73 h -0.25 c -0.05,-0.3 -0.12,-0.73 -0.22,-0.88 C 189.76,658 189.11,658 188.89,658 Z"
         id="path854" /><path
         style="fill:#000000;stroke-width:0"
         inkscape:connector-curvature="0"
         d="m 195.21,664.17 v 0.01 l -0.01,0.01 -0.01,0.01 v 0.01 l -0.01,0.01 v 0.01 l -0.01,0.01 v 0.01 l -0.01,0.01 v 0.01 l -0.01,0.01 v 0 l -0.01,0.01 -0.01,0.01 v 0 l -0.01,0.01 h -0.01 v 0.01 h -0.01 l -0.01,0.01 h -0.01 v 0 l -0.01,0.01 h -0.01 -0.01 -0.01 -0.02 l -0.01,0.01 h -0.01 -0.02 -0.01 -0.01 c -0.17,0 -0.19,-0.05 -0.26,-0.18 l -0.06,-0.82 2.67,-5.36 h -5.36 l 2.69,5.36 0.06,0.82 -3.37,-6.74 c -0.05,-0.09 -0.05,-0.11 -0.05,-0.12 0,-0.08 0.06,-0.08 0.22,-0.08 h 6.91 c 0.16,0 0.22,0 0.22,0.08 0,0.01 0,0.03 -0.05,0.12 z"
         id="path856" /><path
         style="fill:#000000;stroke-width:0"
         inkscape:connector-curvature="0"
         d="m 202.64,661.38 h -0.24 c -0.02,-0.15 -0.09,-0.56 -0.18,-0.63 -0.06,-0.05 -0.59,-0.05 -0.69,-0.05 h -1.28 c 0.73,0.65 0.97,0.84 1.39,1.17 0.52,0.41 1,0.84 1,1.5 0,0.85 -0.74,1.36 -1.63,1.36 -0.86,0 -1.45,-0.6 -1.45,-1.25 0,-0.35 0.3,-0.38 0.37,-0.38 0.17,0 0.37,0.11 0.37,0.37 0,0.12 -0.05,0.36 -0.41,0.36 0.21,0.5 0.69,0.65 1.01,0.65 0.7,0 1.06,-0.54 1.06,-1.11 0,-0.6 -0.43,-1.08 -0.65,-1.33 l -1.68,-1.66 c -0.07,-0.06 -0.07,-0.07 -0.07,-0.27 h 2.87 z"
         id="path858" /><path
         style="fill:#000000;stroke-width:0"
         inkscape:connector-curvature="0"
         d="m 209.87,659.52 h 2.78 c 0.14,0 0.33,0 0.33,0.2 0,0.2 -0.19,0.2 -0.33,0.2 h -2.78 v 2.78 c 0,0.14 0,0.33 -0.2,0.33 -0.19,0 -0.19,-0.19 -0.19,-0.33 v -2.78 h -2.79 c -0.14,0 -0.33,0 -0.33,-0.2 0,-0.2 0.19,-0.2 0.33,-0.2 h 2.79 v -2.78 c 0,-0.14 0,-0.33 0.19,-0.33 0.2,0 0.2,0.19 0.2,0.33 z"
         id="path860" /><path
         style="fill:#000000;stroke-width:0"
         inkscape:connector-curvature="0"
         d="m 217.03,658 1.05,1.02 c 1.55,1.37 2.15,1.91 2.15,2.9 0,1.14 -0.89,1.93 -2.11,1.93 -1.12,0 -1.86,-0.91 -1.86,-1.8 0,-0.55 0.5,-0.55 0.53,-0.55 0.17,0 0.52,0.12 0.52,0.52 0,0.26 -0.18,0.52 -0.53,0.52 -0.08,0 -0.1,0 -0.13,-0.01 0.23,0.64 0.77,1.01 1.34,1.01 0.91,0 1.34,-0.8 1.34,-1.62 0,-0.79 -0.5,-1.58 -1.05,-2.19 l -1.91,-2.13 c -0.11,-0.11 -0.11,-0.13 -0.11,-0.37 h 3.69 l 0.28,1.73 h -0.25 c -0.05,-0.3 -0.12,-0.73 -0.22,-0.88 C 219.69,658 219.04,658 218.82,658 Z"
         id="path862" /><path
         style="fill:#000000;stroke-width:0"
         inkscape:connector-curvature="0"
         d="m 225.14,664.17 v 0.01 l -0.01,0.01 -0.01,0.01 v 0.01 l -0.01,0.01 v 0.01 l -0.01,0.01 v 0.01 l -0.01,0.01 v 0.01 l -0.01,0.01 v 0 l -0.01,0.01 -0.01,0.01 v 0 l -0.01,0.01 h -0.01 v 0.01 h -0.01 l -0.01,0.01 h -0.01 v 0 l -0.01,0.01 h -0.01 -0.01 -0.01 -0.02 l -0.01,0.01 h -0.01 -0.02 -0.01 -0.02 c -0.16,0 -0.18,-0.05 -0.25,-0.18 l -0.06,-0.82 2.67,-5.36 h -5.36 l 2.69,5.36 0.06,0.82 -3.37,-6.74 c -0.05,-0.09 -0.05,-0.11 -0.05,-0.12 0,-0.08 0.06,-0.08 0.22,-0.08 h 6.91 c 0.16,0 0.22,0 0.22,0.08 0,0.01 0,0.03 -0.05,0.12 z"
         id="path864" /><path
         style="fill:#000000;stroke-width:0"
         inkscape:connector-curvature="0"
         d="m 235.78,658.84 h -0.24 c -0.05,-0.25 -0.09,-0.48 -0.18,-0.72 -0.05,-0.16 -0.08,-0.24 -0.66,-0.24 h -0.8 c 0.13,0.56 0.44,1.03 0.89,1.69 0.47,0.71 0.87,1.39 0.87,2.17 0,1.39 -1.34,2.5 -3.02,2.5 -1.71,0 -3.04,-1.13 -3.04,-2.5 0,-0.78 0.41,-1.46 0.88,-2.17 0.44,-0.66 0.76,-1.13 0.89,-1.69 h -0.8 c -0.58,0 -0.61,0.08 -0.66,0.23 -0.08,0.23 -0.13,0.49 -0.18,0.73 h -0.24 l 0.32,-1.61 h 1.6 c 0.22,0 0.24,0 0.24,0.21 0,0.7 -0.3,1.57 -0.53,2.21 -0.21,0.57 -0.49,1.36 -0.49,2.11 0,1.58 1.09,2.26 2,2.26 0.96,0 2.01,-0.72 2.01,-2.26 0,-0.75 -0.27,-1.5 -0.56,-2.32 -0.15,-0.42 -0.47,-1.31 -0.47,-2 0,-0.21 0.03,-0.21 0.26,-0.21 h 1.59 z"
         id="path866" /></g>    <g
       ns0:jacobian_sqrt="0.529167"
       inkscapeversion="0.92.2"
       ns0:alignment="middle center"
       ns0:scale="1.5"
       ns0:preamble="C:\\Users\\bbramman\\AppData\\Roaming\\inkscape\\extensions\\default_packages.tex"
       ns0:text="$\\Omega$"
       ns0:pdfconverter="pstoedit"
       ns0:texconverter="pdflatex"
       ns0:version="0.8.1"
       word-spacing="normal"
       letter-spacing="normal"
       font-size-adjust="none"
       font-stretch="normal"
       font-weight="normal"
       font-variant="normal"
       font-style="normal"
       stroke-miterlimit="10.433"
       xml:space="preserve"
       transform="matrix(0.63500042,0,0,-0.63500042,-54.251634,531.45107)"
       id="g923"
       style="font-style:normal;font-variant:normal;font-weight:normal;font-stretch:normal;letter-spacing:normal;word-spacing:normal;text-anchor:start;fill:none;fill-opacity:1;fill-rule:evenodd;stroke:#000000;stroke-width:0.83333331;stroke-linecap:butt;stroke-linejoin:miter;stroke-miterlimit:10.43299961;stroke-dasharray:none;stroke-dashoffset:0;stroke-opacity:1"><path
         id="path921"
         d="m 155.45,658.84 h -0.25 c -0.05,-0.25 -0.09,-0.48 -0.18,-0.72 -0.05,-0.16 -0.08,-0.24 -0.66,-0.24 h -0.79 c 0.13,0.56 0.44,1.03 0.88,1.69 0.47,0.71 0.88,1.39 0.88,2.17 0,1.39 -1.34,2.5 -3.03,2.5 -1.71,0 -3.03,-1.13 -3.03,-2.5 0,-0.78 0.41,-1.46 0.88,-2.17 0.43,-0.66 0.75,-1.13 0.88,-1.69 h -0.8 c -0.57,0 -0.6,0.08 -0.65,0.23 -0.08,0.23 -0.13,0.49 -0.18,0.73 h -0.25 l 0.33,-1.61 h 1.59 c 0.22,0 0.25,0 0.25,0.21 0,0.7 -0.31,1.57 -0.54,2.21 -0.21,0.57 -0.49,1.36 -0.49,2.11 0,1.58 1.1,2.26 2,2.26 0.96,0 2.01,-0.72 2.01,-2.26 0,-0.75 -0.26,-1.5 -0.55,-2.32 -0.15,-0.42 -0.47,-1.31 -0.47,-2 0,-0.21 0.03,-0.21 0.26,-0.21 h 1.58 z"
         inkscape:connector-curvature="0"
         style="fill:#000000;stroke-width:0" /></g>    <g
       style="font-style:normal;font-variant:normal;font-weight:normal;font-stretch:normal;letter-spacing:normal;word-spacing:normal;text-anchor:start;fill:none;fill-opacity:1;fill-rule:evenodd;stroke:#000000;stroke-width:0.83333331;stroke-linecap:butt;stroke-linejoin:miter;stroke-miterlimit:10.43299961;stroke-dasharray:none;stroke-dashoffset:0;stroke-opacity:1"
       id="g987"
       transform="matrix(0.6350004,0,0,-0.63500042,-10.227395,562.07481)"
       xml:space="preserve"
       stroke-miterlimit="10.433"
       font-style="normal"
       font-variant="normal"
       font-weight="normal"
       font-stretch="normal"
       font-size-adjust="none"
       letter-spacing="normal"
       word-spacing="normal"
       ns0:version="0.8.1"
       ns0:texconverter="pdflatex"
       ns0:pdfconverter="pstoedit"
       ns0:text="$\\tilde{\\Omega} + \\Delta$"
       ns0:preamble="C:\\Users\\bbramman\\AppData\\Roaming\\inkscape\\extensions\\default_packages.tex"
       ns0:scale="1.5"
       ns0:alignment="middle center"
       inkscapeversion="0.92.2"
       ns0:jacobian_sqrt="0.529167"><path
         style="fill:#000000;stroke-width:0"
         inkscape:connector-curvature="0"
         d="m 153.96,666.24 -0.16,0.15 c 0,-0.01 -0.38,-0.48 -0.82,-0.48 -0.23,0 -0.47,0.15 -0.64,0.25 -0.27,0.16 -0.45,0.23 -0.62,0.23 -0.38,0 -0.57,-0.22 -1.07,-0.78 l 0.15,-0.14 c 0,0.01 0.38,0.47 0.82,0.47 0.23,0 0.48,-0.15 0.65,-0.25 0.27,-0.15 0.44,-0.22 0.61,-0.22 0.38,0 0.57,0.21 1.08,0.77 z"
         id="path979" /><path
         style="fill:#000000;stroke-width:0"
         inkscape:connector-curvature="0"
         d="m 155.45,658.84 h -0.25 c -0.05,-0.25 -0.09,-0.48 -0.18,-0.72 -0.05,-0.16 -0.08,-0.24 -0.66,-0.24 h -0.79 c 0.13,0.56 0.44,1.03 0.88,1.69 0.47,0.71 0.88,1.39 0.88,2.17 0,1.39 -1.34,2.5 -3.03,2.5 -1.71,0 -3.03,-1.13 -3.03,-2.5 0,-0.78 0.41,-1.46 0.88,-2.17 0.43,-0.66 0.75,-1.13 0.88,-1.69 h -0.8 c -0.57,0 -0.6,0.08 -0.65,0.23 -0.08,0.23 -0.13,0.49 -0.18,0.73 h -0.25 l 0.33,-1.61 h 1.59 c 0.22,0 0.25,0 0.25,0.21 0,0.7 -0.31,1.57 -0.54,2.21 -0.21,0.57 -0.49,1.36 -0.49,2.11 0,1.58 1.1,2.26 2,2.26 0.96,0 2.01,-0.72 2.01,-2.26 0,-0.75 -0.26,-1.5 -0.55,-2.32 -0.15,-0.42 -0.47,-1.31 -0.47,-2 0,-0.21 0.03,-0.21 0.26,-0.21 h 1.58 z"
         id="path981" /><path
         style="fill:#000000;stroke-width:0"
         inkscape:connector-curvature="0"
         d="m 162.19,659.52 h 2.77 c 0.14,0 0.33,0 0.33,0.2 0,0.2 -0.19,0.2 -0.33,0.2 h -2.77 v 2.78 c 0,0.14 0,0.33 -0.2,0.33 -0.2,0 -0.2,-0.19 -0.2,-0.33 v -2.78 H 159 c -0.13,0 -0.32,0 -0.32,-0.2 0,-0.2 0.19,-0.2 0.32,-0.2 h 2.79 v -2.78 c 0,-0.14 0,-0.33 0.2,-0.33 0.2,0 0.2,0.19 0.2,0.33 z"
         id="path983" /><path
         style="fill:#000000;stroke-width:0"
         inkscape:connector-curvature="0"
         d="m 172.48,664.17 -0.01,0.01 -0.01,0.01 v 0.01 l -0.01,0.01 v 0.01 l -0.01,0.01 v 0.01 l -0.01,0.01 v 0.01 l -0.01,0.01 -0.01,0.01 v 0 l -0.01,0.01 v 0.01 h -0.01 l -0.01,0.01 v 0 l -0.01,0.01 h -0.01 v 0.01 h -0.01 -0.01 l -0.01,0.01 h -0.01 -0.01 -0.01 -0.01 l -0.02,0.01 h -0.01 -0.01 -0.02 -0.01 c -0.17,0 -0.19,-0.05 -0.26,-0.18 l -0.06,-0.82 2.68,-5.36 h -5.37 l 2.69,5.36 0.06,0.82 -3.36,-6.74 c -0.05,-0.09 -0.05,-0.11 -0.05,-0.11 0,-0.09 0.06,-0.09 0.22,-0.09 h 6.9 c 0.16,0 0.22,0 0.22,0.09 0,0 0,0.02 -0.05,0.11 z"
         id="path985" /></g>    <g
       ns0:jacobian_sqrt="0.529167"
       inkscapeversion="0.92.2"
       ns0:alignment="middle center"
       ns0:scale="1.5"
       ns0:preamble="C:\\Users\\bbramman\\AppData\\Roaming\\inkscape\\extensions\\default_packages.tex"
       ns0:text="$\\theta$"
       ns0:pdfconverter="pstoedit"
       ns0:texconverter="pdflatex"
       ns0:version="0.8.1"
       word-spacing="normal"
       letter-spacing="normal"
       font-size-adjust="none"
       font-stretch="normal"
       font-weight="normal"
       font-variant="normal"
       font-style="normal"
       stroke-miterlimit="10.433"
       xml:space="preserve"
       transform="matrix(0.63500043,0,0,-0.63500041,20.75732,551.46454)"
       id="g1053"
       style="font-style:normal;font-variant:normal;font-weight:normal;font-stretch:normal;letter-spacing:normal;word-spacing:normal;text-anchor:start;fill:none;fill-opacity:1;fill-rule:evenodd;stroke:#000000;stroke-width:0.83333331;stroke-linecap:butt;stroke-linejoin:miter;stroke-miterlimit:10.43299961;stroke-dasharray:none;stroke-dashoffset:0;stroke-opacity:1"><path
         id="path1051"
         d="m 153.24,662.2 v 0.07 0.06 l -0.01,0.07 v 0.08 l -0.01,0.07 v 0.08 l -0.01,0.08 -0.01,0.09 -0.02,0.08 -0.01,0.08 -0.02,0.09 -0.02,0.08 -0.02,0.09 -0.03,0.08 -0.03,0.09 -0.03,0.08 -0.03,0.08 -0.04,0.07 -0.04,0.08 -0.04,0.07 -0.05,0.06 -0.05,0.07 -0.05,0.06 -0.06,0.05 -0.06,0.05 -0.03,0.02 -0.04,0.03 -0.03,0.02 -0.04,0.01 -0.03,0.02 -0.04,0.02 -0.04,0.01 -0.04,0.01 -0.04,0.01 -0.04,0.01 -0.05,0.01 h -0.04 l -0.05,0.01 h -0.05 v -0.22 c 0.48,0 0.54,-0.64 0.54,-1.2 0,-0.49 -0.08,-1 -0.32,-1.98 h -2.08 c 0.17,0.64 0.37,1.43 0.77,2.14 0.27,0.48 0.64,1.04 1.09,1.04 v 0.22 c -1.38,0 -2.91,-2.8 -2.91,-5.08 0,-0.93 0.29,-2.03 1.19,-2.03 v 0.21 c -0.33,0 -0.53,0.29 -0.53,1.22 0,0.41 0.06,0.99 0.31,1.96 h 2.07 c -0.1,-0.45 -0.31,-1.3 -0.69,-2.01 -0.35,-0.68 -0.73,-1.17 -1.16,-1.17 v -0.21 c 1.41,0 2.92,2.85 2.92,5.07 z"
         inkscape:connector-curvature="0"
         style="fill:#000000;stroke-width:0" /></g>  </g>
</svg>
